<svg width="50" height="29" viewBox="0 0 50 29" fill="none" xmlns="http://www.w3.org/2000/svg">
<path d="M6.0104 18.5738C6.44899 18.5902 7.69981 18.5738 7.69981 18.5738V21.5246C7.69981 21.5246 6.5627 21.5246 6.0104 21.5246C4.35348 21.5246 0 21.2131 0 16.5738C0 11.2787 0 0 0 0H2.92398C2.92398 0 2.92398 13.2787 2.92398 15.7377C2.92398 18.0328 4.4347 18.5082 6.0104 18.5738ZM50 13.7213V21.541H47.0923V19.8361C45.7602 20.9016 44.0871 21.5574 42.2515 21.5574C37.9792 21.5574 34.5029 18.0656 34.5029 13.7377C34.5029 9.40984 37.963 5.91803 42.2515 5.91803C46.5237 5.91803 50 9.40984 50 13.7213ZM47.141 13.7213C47.141 11 44.948 8.78689 42.2515 8.78689C39.5549 8.78689 37.3619 11 37.3619 13.7213C37.3619 16.4426 39.5549 18.6557 42.2515 18.6557C44.9643 18.6557 47.141 16.4426 47.141 13.7213ZM33.6745 5.91803C30.9129 5.91803 29.2073 7.42623 28.3301 8.78689V5.91803H25.4061V21.5574H28.3301V14.8033C28.3301 11.8525 30.1657 8.78689 33.5445 8.78689H34.1293V5.91803H33.6745ZM20.3866 5.88525L15.3834 17.6721L10.8999 5.88525H7.74854L13.7589 21.459L10.3801 29H13.6777L23.668 5.88525H20.3866Z" fill="#004EC3"/>
</svg>
