<?xml version="1.0" encoding="utf-8"?>
<!-- Generator: Adobe Illustrator 23.0.0, SVG Export Plug-In . SVG Version: 6.00 Build 0)  -->
<svg version="1.1" id="Layer_1" xmlns="http://www.w3.org/2000/svg" xmlns:xlink="http://www.w3.org/1999/xlink" x="0px" y="0px"
	 width="201.2px" height="80px" viewBox="0 0 201.2 80" style="enable-background:new 0 0 201.2 80;" xml:space="preserve">
<style type="text/css">
	.st0{fill:#58C5C7;}
	.st1{fill:#00468B;}
	.st2{fill:#6D6E71;}
</style>
<g>
	<g>
		<g>
			<path class="st0" d="M40,29l-6.9-10.1c-2.1-3.1-6.7-3.1-8.9,0l-6.6,9.7c-0.4,0.6,0.3,1.4,0.9,1c5.3-2.7,13.1-2.6,20.6,0.4
				C39.9,30.3,40.4,29.6,40,29z"/>
		</g>
		<g>
			<path class="st1" d="M65.1,44.3c-1.8-0.7-3.6-2-5.3-3.6l4.1-4.3c4.7,3.6,8.4,3.1,9.5,2.4c1-0.7,1-2.6-0.4-3.2
				c-0.5-0.3-1.1-0.4-2.7-1c0,0-6.5-1.9-8.4-4.6c-1-1.5-1.6-3-1.6-4.8c0-1.8,0.6-3.5,1.7-5.1c1.1-1.5,2.6-2.5,4.5-3.2
				c1.3-0.5,2.7-0.7,4.2-0.7c1.7,0,3.5,0.3,5.2,0.9c1.7,0.6,3.2,1.5,4.5,2.6L77,24.2c-2.7-1.8-6.1-2.8-8.9-1.5
				c-1.7,0.8-1.9,3.4,0.6,4.6c0.8,0.4,1.9,0.8,3.4,1.4c1.5,0.5,2.7,1.1,3.6,1.5c4,1.5,5.2,4.2,5.1,7.6c0,1.5-0.4,2.8-1.2,4
				c-0.8,1.2-2,2.1-3.4,2.7c-1.5,0.6-3,1-4.9,1C69.1,45.4,67,45,65.1,44.3z"/>
			<path class="st1" d="M86.2,42.8C84.7,41,84,38.6,84,35.4V24.7h6v10.7c0,1.4,0.1,2.6,0.7,3.3c2.5,2.6,6,0.2,6.4-0.3V24.7h6.1v20.4
				h-6.1v-1c-1.3,0.8-2.9,1.2-4.9,1.2C89.6,45.4,87.6,44.6,86.2,42.8z"/>
			<path class="st1" d="M142.1,24.7h6v1c0.7-0.5,1.5-0.8,2.5-1.1c0.9-0.3,1.7-0.4,2.5-0.4c2.2,0,4,0.7,5.4,2.1
				c0.8-0.7,1.7-1.2,2.8-1.6c4-1.5,8-0.1,9.9,2.3c1.6,2.1,2.2,4.1,2.2,7.6v10.7h-6.1V34.5c0-1.2,0-4.6-3-4.6c-3.2,0-3.1,3.2-3.1,4.6
				v10.7h-5.8V34.5c0.1-3-1.1-4.5-3.1-4.6c-2-0.1-3.6,1.1-4,1.7v13.6h-6L142.1,24.7L142.1,24.7z"/>
			<path class="st1" d="M177.9,22.4c-0.6-0.6-1-1.4-1-2.3s0.3-1.7,1-2.4c0.6-0.6,1.4-1,2.3-1s1.7,0.3,2.3,1c0.6,0.6,1,1.4,1,2.4
				c0,0.9-0.3,1.7-1,2.3c-0.6,0.6-1.4,1-2.3,1C179.3,23.4,178.5,23.1,177.9,22.4z M177.2,29.3v-4.5h6.1v20.4h-6.1V29.3z"/>
			<path class="st1" d="M191.4,44.8c-1-0.6-1.8-1.4-2.4-2.5c-0.6-1-0.9-2.3-0.9-3.6v-9.8h-1.5v-4.5h1.5v-6.9h5.7v6.9h3.8v4.5h-3.8
				v9.8c0,0.5,0.1,0.8,0.4,1s0.5,0.4,0.9,0.4c0.5,0,0.9-0.1,1.2-0.3c0.4-0.2,0.8-0.5,1.2-1l3.3,3.2c-2,3.3-4.8,3.7-6.1,3.7
				C193.5,45.7,192.4,45.4,191.4,44.8z"/>
			<path class="st1" d="M107.1,24.7h6v1c0.7-0.5,1.5-0.8,2.5-1.1c0.9-0.3,1.7-0.4,2.5-0.4c2.2,0,4,0.7,5.4,2.1
				c0.8-0.7,1.7-1.2,2.8-1.6c4-1.5,8-0.1,9.9,2.3c1.6,2.1,2.2,4.1,2.2,7.6v10.7h-6.1V34.5c0-1.2,0-4.6-3-4.6c-3.2,0-3.1,3.2-3.1,4.6
				v10.7h-5.8V34.5c0.1-3-1.1-4.5-3.1-4.6c-2-0.1-3.6,1.1-4,1.7v13.6h-6L107.1,24.7L107.1,24.7z"/>
		</g>
		<g>
			<path class="st2" d="M66.6,53.8c-0.3-0.4-0.6-0.7-1.1-0.9c-0.5-0.2-0.9-0.3-1.4-0.3c-0.6,0-1.1,0.1-1.5,0.3s-0.9,0.5-1.2,0.9
				c-0.3,0.4-0.6,0.8-0.8,1.3s-0.3,1-0.3,1.6c0,0.5,0.1,1,0.3,1.5c0.2,0.5,0.4,0.9,0.7,1.3c0.3,0.4,0.7,0.6,1.2,0.9s1,0.3,1.6,0.3
				c0.6,0,1.1-0.1,1.5-0.4s0.8-0.6,1.1-1l1.2,0.9c-0.1,0.1-0.2,0.3-0.4,0.5c-0.2,0.2-0.5,0.4-0.8,0.6s-0.7,0.4-1.1,0.5
				s-1,0.2-1.5,0.2c-0.8,0-1.5-0.1-2.2-0.5c-0.6-0.3-1.2-0.7-1.6-1.2s-0.8-1-1-1.7s-0.4-1.3-0.4-1.9c0-0.8,0.1-1.5,0.4-2.2
				c0.3-0.7,0.6-1.2,1.1-1.7c0.5-0.5,1-0.9,1.7-1.1c0.6-0.3,1.4-0.4,2.1-0.4c0.7,0,1.3,0.1,2,0.4c0.6,0.3,1.2,0.6,1.6,1.2L66.6,53.8
				z"/>
			<path class="st2" d="M74.4,62c-0.8,0-1.5-0.1-2.1-0.4s-1.2-0.6-1.7-1.1c-0.5-0.5-0.8-1-1.1-1.7c-0.3-0.6-0.4-1.4-0.4-2.1
				s0.1-1.5,0.4-2.1c0.3-0.6,0.6-1.2,1.1-1.7c0.5-0.5,1-0.9,1.7-1.1c0.6-0.3,1.4-0.4,2.1-0.4c0.8,0,1.5,0.1,2.1,0.4
				c0.6,0.3,1.2,0.6,1.7,1.1s0.8,1,1.1,1.7c0.3,0.6,0.4,1.4,0.4,2.1s-0.1,1.5-0.4,2.1c-0.3,0.6-0.6,1.2-1.1,1.7
				c-0.5,0.5-1,0.9-1.7,1.1C75.9,61.9,75.2,62,74.4,62z M74.4,60.7c0.6,0,1.1-0.1,1.6-0.3c0.5-0.2,0.9-0.5,1.2-0.9
				c0.4-0.4,0.6-0.8,0.8-1.3c0.2-0.5,0.3-1,0.3-1.6c0-0.5-0.1-1.1-0.3-1.6s-0.5-0.9-0.8-1.3c-0.3-0.4-0.7-0.6-1.2-0.9
				c-0.5-0.2-1-0.3-1.6-0.3s-1.1,0.1-1.6,0.3c-0.5,0.2-0.9,0.5-1.2,0.9c-0.3,0.4-0.6,0.8-0.8,1.3c-0.2,0.5-0.3,1-0.3,1.6
				c0,0.5,0.1,1.1,0.3,1.6s0.5,0.9,0.8,1.3c0.3,0.4,0.7,0.6,1.2,0.9S73.9,60.7,74.4,60.7z"/>
			<path class="st2" d="M82.2,51.6h2l3.2,7.7h0l3.2-7.7h2v10.2h-1.4v-8.4h0l-3.4,8.4H87l-3.4-8.4h0v8.4h-1.4L82.2,51.6L82.2,51.6z"
				/>
			<path class="st2" d="M95.7,51.6h2l3.2,7.7h0l3.2-7.7h2v10.2h-1.4v-8.4h0l-3.4,8.4h-0.9l-3.4-8.4h0v8.4h-1.4V51.6z"/>
			<path class="st2" d="M110.6,51.6v6.2c0,0.3,0,0.6,0.1,1c0.1,0.4,0.2,0.6,0.4,1c0.2,0.3,0.5,0.5,0.8,0.7c0.3,0.2,0.7,0.3,1.2,0.3
				c0.5,0,0.9-0.1,1.2-0.3c0.3-0.2,0.6-0.4,0.8-0.7c0.2-0.3,0.4-0.6,0.4-1c0.1-0.3,0.1-0.7,0.1-1v-6.2h1.4V58c0,0.6-0.1,1.1-0.3,1.6
				c-0.2,0.5-0.5,0.9-0.8,1.3c-0.4,0.4-0.8,0.6-1.2,0.8c-0.5,0.2-1,0.3-1.5,0.3s-1.1-0.1-1.5-0.3c-0.5-0.2-0.9-0.5-1.2-0.8
				c-0.4-0.4-0.6-0.8-0.8-1.3c-0.2-0.5-0.3-1-0.3-1.6v-6.5H110.6z"/>
			<path class="st2" d="M120.1,51.6h1.8l5.6,8.4h0v-8.4h1.4v10.2h-1.8l-5.6-8.4h0v8.4h-1.4V51.6z"/>
			<path class="st2" d="M131.9,51.6h1.4v10.2h-1.4V51.6z"/>
			<path class="st2" d="M138.5,52.8h-3.3v-1.3h7.9v1.3h-3.3v8.9h-1.4L138.5,52.8L138.5,52.8z"/>
			<path class="st2" d="M148.3,57.4l-3.9-5.8h1.8L149,56l2.9-4.5h1.7l-3.9,5.8v4.4h-1.4V57.4z"/>
			<path class="st2" d="M166.8,53.8c-0.3-0.4-0.6-0.7-1.1-0.9c-0.5-0.2-0.9-0.3-1.4-0.3c-0.6,0-1.1,0.1-1.5,0.3
				c-0.5,0.2-0.9,0.5-1.2,0.9c-0.3,0.4-0.6,0.8-0.8,1.3c-0.2,0.5-0.3,1-0.3,1.6c0,0.5,0.1,1,0.3,1.5s0.4,0.9,0.7,1.3
				c0.3,0.4,0.7,0.6,1.2,0.9c0.5,0.2,1,0.3,1.6,0.3c0.6,0,1.1-0.1,1.5-0.4c0.5-0.2,0.8-0.6,1.1-1l1.2,0.9c-0.1,0.1-0.2,0.3-0.4,0.5
				c-0.2,0.2-0.5,0.4-0.8,0.6s-0.7,0.4-1.1,0.5c-0.5,0.1-1,0.2-1.5,0.2c-0.8,0-1.5-0.1-2.2-0.5c-0.6-0.3-1.2-0.7-1.6-1.2
				c-0.5-0.5-0.8-1-1-1.7c-0.2-0.6-0.4-1.3-0.4-1.9c0-0.8,0.1-1.5,0.4-2.2c0.3-0.7,0.6-1.2,1.1-1.7c0.5-0.5,1-0.9,1.7-1.1
				c0.7-0.3,1.4-0.4,2.1-0.4c0.7,0,1.3,0.1,2,0.4c0.6,0.3,1.2,0.6,1.6,1.2L166.8,53.8z"/>
			<path class="st2" d="M173.8,51.6h1.2l4.4,10.2h-1.6l-1-2.5H172l-1,2.5h-1.6L173.8,51.6z M176.3,58l-1.9-4.7h0l-1.9,4.7H176.3z"/>
			<path class="st2" d="M181.3,51.6h3.6c0.6,0,1.2,0.1,1.6,0.3c0.4,0.2,0.8,0.4,1,0.7c0.2,0.3,0.4,0.6,0.5,0.9
				c0.1,0.3,0.1,0.7,0.1,1c0,0.3,0,0.6-0.2,1c-0.1,0.3-0.3,0.6-0.5,0.8c-0.2,0.2-0.5,0.5-0.8,0.6c-0.3,0.2-0.6,0.3-1,0.3l2.9,4.6
				h-1.7l-2.6-4.5h-1.5v4.5h-1.4L181.3,51.6L181.3,51.6z M182.7,56h1.8c0.3,0,0.5,0,0.8,0s0.5-0.1,0.7-0.2c0.2-0.1,0.4-0.3,0.5-0.5
				c0.1-0.2,0.2-0.5,0.2-0.9c0-0.4,0-0.6-0.2-0.9c-0.1-0.2-0.3-0.4-0.5-0.5s-0.5-0.2-0.7-0.2c-0.3,0-0.5,0-0.8,0h-1.8V56z"/>
			<path class="st2" d="M190.6,51.6h6.6v1.3H192v3h4.8v1.3H192v3.3h5.5v1.3h-6.8V51.6z"/>
		</g>
	</g>
	<path class="st1" d="M52.7,48.4c-0.6-1-4.9-8.2-22.3-1.5c-8.7,3.4-19.2-0.1-18.1-8.2c0.1-0.7-0.8-1-1.1-0.5C7.5,43.5,1,53.2,1,53.2
		c-2.5,3.6,0.1,8.5,4.5,8.5h23.3h16.4C53.8,61.8,55.8,53.5,52.7,48.4z"/>
</g>
</svg>
